<?xml version="1.0" encoding="utf-8"?>
<!-- Generator: Adobe Illustrator 16.0.4, SVG Export Plug-In . SVG Version: 6.00 Build 0)  -->
<!DOCTYPE svg PUBLIC "-//W3C//DTD SVG 1.1//EN" "http://www.w3.org/Graphics/SVG/1.1/DTD/svg11.dtd">
<svg version="1.1" id="Layer_1" xmlns="http://www.w3.org/2000/svg" xmlns:xlink="http://www.w3.org/1999/xlink" x="0px" y="0px"
	 width="280px" height="183px" viewBox="0 15.75 280 183" enable-background="new 0 15.75 280 183" xml:space="preserve">
<g>
	<line fill="none" stroke="#000000" stroke-width="1.5" stroke-miterlimit="10" x1="79.213" y1="82.359" x2="96.329" y2="129.402"/>
	<line fill="none" stroke="#000000" stroke-width="1.5" stroke-miterlimit="10" x1="79.213" y1="82.359" x2="109.067" y2="38.937"/>
	
		<line fill="none" stroke="#000000" stroke-width="1.5" stroke-miterlimit="10" x1="96.329" y1="129.402" x2="68.519" y2="179.673"/>
</g>
<g>
	<path fill="none" d="M112.116,31.197c-1.243-0.497-2.6-0.662-3.928-0.533c-1.341,0.12-2.624,0.627-3.73,1.354
		c-1.122,0.726-2.033,1.759-2.676,2.934c-0.659,1.169-0.983,2.504-1.007,3.834c-0.034,1.329,0.28,2.69,0.893,3.87
		c0.603,1.186,1.481,2.244,2.587,3.005c1.092,0.774,2.364,1.303,3.69,1.464c1.314,0.169,2.688,0.061,3.947-0.419
		c1.25-0.465,2.396-1.21,3.297-2.2c0.886-0.998,1.566-2.198,1.9-3.494c0.327-1.295,0.353-2.654,0.062-3.97
		c-0.315-1.31-0.934-2.52-1.795-3.54C114.489,32.485,113.351,31.707,112.116,31.197z"/>
	<path fill="#282A1F" d="M120.401,36.293l-0.322-1.129c0.797-0.583,1.567-1.234,2.308-1.952c-0.196-0.521-0.488-1-0.74-1.497
		c-1.04,0.096-2.078,0.287-3.048,0.541c-0.212-0.329-0.479-0.618-0.718-0.929c-0.251-0.3-0.54-0.567-0.81-0.851
		c0.444-0.898,0.812-1.823,1.134-2.805c-0.412-0.374-0.898-0.656-1.347-0.98c-0.878,0.57-1.705,1.222-2.448,1.896
		c-0.343-0.19-0.711-0.327-1.068-0.491c-0.361-0.146-0.739-0.252-1.109-0.379c-0.024-0.999-0.125-1.993-0.296-3.01
		c-0.541-0.139-1.101-0.166-1.651-0.243c-0.514,0.913-0.944,1.875-1.286,2.817c-0.391-0.016-0.78,0.047-1.171,0.066
		c-0.392,0.026-0.772,0.125-1.16,0.185c-0.491-0.896-1.035-1.706-1.659-2.53c-0.541,0.136-1.055,0.343-1.571,0.555
		c-0.041,1.027,0.029,2.087,0.168,3.088c-0.356,0.167-0.681,0.386-1.008,0.6c-0.339,0.201-0.637,0.458-0.941,0.702
		c-0.846-0.558-1.726-1.043-2.651-1.468c-0.408,0.377-0.78,0.791-1.13,1.224c0.448,0.931,0.997,1.831,1.586,2.654
		c-0.236,0.313-0.424,0.658-0.612,1c-0.204,0.334-0.349,0.7-0.509,1.058c-1.01-0.103-2.008-0.122-3.029-0.072
		c-0.191,0.523-0.322,1.064-0.434,1.608c0.825,0.617,1.732,1.161,2.635,1.617c-0.062,0.387-0.067,0.779-0.075,1.171
		c-0.024,0.391,0.013,0.784,0.043,1.174c-0.938,0.379-1.847,0.831-2.714,1.347c0.086,0.548,0.195,1.092,0.364,1.622
		c1.03,0.157,2.049,0.23,3.082,0.207c0.145,0.365,0.281,0.731,0.477,1.073c0.179,0.349,0.354,0.699,0.58,1.019
		c-0.634,0.758-1.261,1.601-1.78,2.458c0.349,0.433,0.683,0.882,1.083,1.268c0.996-0.349,1.921-0.751,2.824-1.254
		c0.301,0.25,0.591,0.516,0.921,0.728c0.322,0.225,0.639,0.451,0.989,0.63c-0.212,0.968-0.372,2.001-0.439,3.003
		c0.507,0.225,1.011,0.464,1.543,0.622c0.719-0.767,1.355-1.556,1.924-2.421c0.383,0.085,0.761,0.185,1.153,0.217
		c0.389,0.05,0.775,0.104,1.17,0.099c0.264,0.951,0.601,1.947,1.012,2.862c0.553-0.048,1.114-0.056,1.655-0.17
		c0.274-1.026,0.474-2.004,0.574-3.036c0.373-0.116,0.759-0.194,1.122-0.342c0.36-0.152,0.736-0.27,1.081-0.454
		c0.679,0.725,1.42,1.417,2.225,2.07c0.47-0.299,0.948-0.589,1.393-0.923c-0.233-1.036-0.528-2.016-0.903-2.956
		c0.277-0.277,0.569-0.539,0.831-0.828c0.249-0.304,0.521-0.587,0.745-0.908c0.937,0.324,1.916,0.592,2.932,0.796
		c0.276-0.481,0.566-0.959,0.801-1.461c-0.688-0.809-1.399-1.538-2.171-2.199c0.116-0.374,0.261-0.74,0.355-1.12
		c0.077-0.383,0.19-0.76,0.237-1.149c0.98-0.146,1.973-0.366,2.968-0.658c0.021-0.555,0.049-1.114,0.028-1.669
		c-0.983-0.398-1.965-0.709-2.941-0.935L120.401,36.293z M117.089,41.012c-0.332,1.295-1.016,2.493-1.901,3.493
		c-0.899,0.992-2.047,1.735-3.297,2.201c-1.258,0.479-2.633,0.586-3.946,0.418c-1.326-0.161-2.599-0.69-3.69-1.464
		c-1.105-0.761-1.982-1.819-2.586-3.004c-0.613-1.18-0.928-2.542-0.894-3.87c0.021-1.33,0.347-2.666,1.007-3.835
		c0.642-1.175,1.554-2.208,2.675-2.934c1.107-0.728,2.39-1.233,3.731-1.353c1.327-0.13,2.685,0.037,3.928,0.532
		c1.234,0.509,2.372,1.289,3.24,2.307c0.861,1.021,1.479,2.23,1.795,3.54C117.442,38.357,117.417,39.717,117.089,41.012z"/>
</g>
<g>
	<path fill="none" d="M103.507,120.38c-1.463-1.176-3.211-1.952-5.039-2.322c-1.845-0.387-3.772-0.238-5.555,0.287
		c-1.797,0.512-3.442,1.523-4.779,2.832c-1.363,1.297-2.345,2.948-2.916,4.721c-0.591,1.767-0.728,3.716-0.388,5.548
		c0.319,1.835,1.063,3.607,2.231,5.08c1.143,1.481,2.63,2.712,4.338,3.472c1.69,0.764,3.578,1.183,5.461,1.055
		c1.864-0.112,3.701-0.637,5.313-1.599c1.592-0.975,2.998-2.302,3.972-3.896c0.968-1.6,1.557-3.411,1.707-5.289
		c0.113-1.884-0.218-3.756-0.955-5.477C106.156,123.077,104.949,121.567,103.507,120.38z"/>
	<path fill="#BA292F" d="M112.512,130.593l0.032-1.644c1.307-0.457,2.603-1.011,3.889-1.669c-0.049-0.776-0.245-1.542-0.375-2.307
		c-1.435-0.299-2.901-0.467-4.301-0.524c-0.151-0.529-0.39-1.023-0.582-1.537c-0.214-0.504-0.493-0.979-0.735-1.471
		c0.962-1.021,1.833-2.107,2.667-3.29c-0.4-0.67-0.933-1.246-1.401-1.864c-1.409,0.404-2.783,0.938-4.053,1.536
		c-0.379-0.393-0.82-0.726-1.229-1.092c-0.425-0.344-0.889-0.643-1.332-0.965c0.375-1.345,0.646-2.719,0.837-4.149
		c-0.669-0.404-1.408-0.674-2.115-1.003c-1.058,1.014-2.03,2.125-2.874,3.247c-0.518-0.182-1.064-0.26-1.596-0.391
		c-0.533-0.125-1.086-0.149-1.629-0.228c-0.292-1.401-0.689-2.707-1.186-4.069c-0.777-0.035-1.555,0.029-2.33,0.1
		c-0.473,1.363-0.815,2.806-1.04,4.203c-0.544,0.081-1.07,0.238-1.595,0.395c-0.533,0.133-1.038,0.352-1.548,0.553
		c-0.905-1.093-1.883-2.102-2.947-3.05c-0.705,0.337-1.368,0.738-2.017,1.174c0.219,1.43,0.584,2.857,1.039,4.204
		c-0.444,0.323-0.836,0.708-1.229,1.089c-0.413,0.365-0.752,0.795-1.112,1.206c-1.311-0.55-2.639-0.986-4.025-1.338
		c-0.47,0.625-0.866,1.294-1.242,1.978c0.852,1.166,1.844,2.266,2.868,3.244c-0.243,0.491-0.411,1.015-0.581,1.536
		c-0.194,0.514-0.303,1.052-0.424,1.589c-1.41,0.123-2.811,0.354-4.186,0.689c-0.108,0.771-0.185,1.544-0.176,2.319
		c1.316,0.633,2.651,1.149,4.043,1.54c0.043,0.546,0.076,1.097,0.199,1.63c0.096,0.542,0.188,1.082,0.361,1.604
		c-1.159,0.755-2.344,1.625-3.391,2.561c0.29,0.723,0.551,1.461,0.931,2.14c1.475-0.061,2.877-0.218,4.295-0.521
		c0.3,0.458,0.578,0.932,0.936,1.347c0.334,0.435,0.67,0.869,1.063,1.251c-0.678,1.213-1.319,2.525-1.817,3.842
		c0.59,0.509,1.165,1.033,1.815,1.466c1.276-0.733,2.45-1.528,3.564-2.453c0.478,0.267,0.944,0.557,1.458,0.763
		c0.5,0.225,0.996,0.456,1.523,0.61c-0.036,1.382,0.01,2.852,0.183,4.246c0.76,0.162,1.514,0.382,2.287,0.451
		c0.787-1.264,1.454-2.489,2.01-3.829c0.546-0.003,1.098,0.049,1.643,0c0.544-0.06,1.097-0.059,1.634-0.162
		c0.61,1.244,1.321,2.478,2.134,3.68c0.749-0.205,1.51-0.402,2.24-0.666c0.113-1.481,0.12-2.913,0.001-4.323
		c0.483-0.26,0.982-0.493,1.452-0.77c0.456-0.306,0.937-0.574,1.369-0.911c1.12,0.818,2.322,1.577,3.598,2.267
		c0.566-0.529,1.147-1.051,1.671-1.626c-0.589-1.366-1.243-2.633-2.006-3.836c0.309-0.452,0.651-0.884,0.933-1.353
		c0.263-0.483,0.569-0.94,0.791-1.44c1.373,0.206,2.79,0.318,4.24,0.332c0.259-0.734,0.523-1.473,0.722-2.223
		c-1.154-0.937-2.341-1.755-3.557-2.458L112.512,130.593z M106.146,135.558c-0.974,1.594-2.38,2.922-3.972,3.896
		c-1.613,0.962-3.452,1.486-5.313,1.599c-1.88,0.128-3.769-0.291-5.461-1.055c-1.708-0.76-3.196-1.99-4.338-3.472
		c-1.169-1.473-1.912-3.245-2.231-5.08c-0.338-1.832-0.202-3.781,0.388-5.548c0.571-1.774,1.554-3.424,2.916-4.721
		c1.337-1.309,2.982-2.32,4.779-2.832c1.78-0.523,3.708-0.674,5.555-0.287c1.83,0.371,3.576,1.146,5.039,2.322
		c1.441,1.188,2.648,2.697,3.391,4.413c0.736,1.718,1.068,3.592,0.955,5.475C107.704,132.146,107.114,133.958,106.146,135.558z"/>
</g>
<g>
	<path fill="none" d="M71.777,75.597c-1.091,1.179-1.861,2.626-2.287,4.169c-0.44,1.556-0.427,3.211-0.088,4.764
		c0.332,1.567,1.098,3.035,2.137,4.257c1.026,1.242,2.381,2.181,3.863,2.776c1.475,0.61,3.133,0.843,4.721,0.664
		c1.588-0.165,3.148-0.693,4.478-1.604c1.334-0.889,2.476-2.089,3.228-3.503c0.754-1.399,1.225-2.99,1.229-4.604
		c0.016-1.601-0.325-3.204-1.05-4.639c-0.739-1.422-1.789-2.702-3.097-3.631c-1.309-0.924-2.82-1.538-4.419-1.776
		c-1.601-0.211-3.223-0.04-4.737,0.489C74.242,73.493,72.88,74.436,71.777,75.597z"/>
	<path fill="#282A1F" d="M81.048,68.508l-1.402-0.125c-0.311-1.146-0.709-2.287-1.193-3.427c-0.668-0.005-1.33,0.12-1.993,0.183
		c-0.343,1.211-0.574,2.454-0.706,3.648c-0.458,0.098-0.898,0.273-1.348,0.405c-0.445,0.153-0.869,0.362-1.301,0.542
		c-0.817-0.886-1.693-1.694-2.656-2.478c-0.596,0.303-1.121,0.724-1.678,1.088c0.264,1.231,0.637,2.436,1.072,3.557
		c-0.357,0.304-0.669,0.656-1.006,0.984c-0.32,0.344-0.602,0.722-0.904,1.082c-1.127-0.403-2.283-0.718-3.5-0.966
		c-0.385,0.548-0.656,1.163-0.98,1.747c0.803,0.97,1.694,1.864,2.602,2.653c-0.184,0.431-0.285,0.896-0.429,1.34
		c-0.139,0.45-0.192,0.921-0.292,1.38c-1.217,0.165-2.356,0.429-3.549,0.772c-0.078,0.662-0.068,1.329-0.055,1.996
		c1.136,0.486,2.352,0.864,3.531,1.143c0.035,0.471,0.141,0.927,0.24,1.388c0.083,0.464,0.24,0.908,0.381,1.356
		c-0.988,0.708-1.91,1.484-2.787,2.337c0.248,0.622,0.553,1.216,0.885,1.791c1.236-0.1,2.479-0.328,3.656-0.636
		c0.252,0.398,0.555,0.758,0.857,1.117c0.288,0.374,0.637,0.692,0.967,1.025c-0.549,1.086-1.001,2.195-1.383,3.361
		c0.506,0.439,1.053,0.818,1.617,1.181c1.045-0.661,2.045-1.442,2.945-2.257c0.407,0.236,0.844,0.411,1.279,0.585
		c0.43,0.198,0.882,0.323,1.335,0.458c0.021,1.213,0.136,2.427,0.341,3.621c0.652,0.138,1.309,0.248,1.975,0.289
		c0.619-1.088,1.137-2.199,1.556-3.366c0.472-0.003,0.942,0,1.407-0.072C81,96.162,81.468,96.112,81.925,96
		c0.576,1.036,1.252,2.098,1.988,3.051c0.637-0.205,1.281-0.385,1.887-0.668c0.035-1.266-0.018-2.473-0.191-3.704
		c0.41-0.229,0.833-0.438,1.211-0.72c0.391-0.261,0.782-0.523,1.133-0.836c0.993,0.652,2.079,1.28,3.176,1.783
		c0.469-0.474,0.953-0.938,1.361-1.466c-0.549-1.136-1.158-2.186-1.885-3.194c0.26-0.391,0.534-0.775,0.739-1.198
		c0.223-0.414,0.448-0.827,0.614-1.269c1.18,0.111,2.438,0.16,3.641,0.098c0.186-0.64,0.416-1.272,0.521-1.93
		c-1.033-0.749-2.042-1.392-3.156-1.946c0.031-0.47,0.111-0.935,0.1-1.406c-0.018-0.467,0.015-0.941-0.041-1.408
		c1.1-0.448,2.197-0.981,3.273-1.604c-0.132-0.654-0.254-1.313-0.434-1.955c-1.263-0.186-2.484-0.276-3.698-0.259
		c-0.192-0.427-0.36-0.871-0.571-1.288c-0.235-0.407-0.436-0.833-0.696-1.223c0.767-0.91,1.487-1.891,2.155-2.942
		c-0.421-0.517-0.832-1.044-1.293-1.524c-1.203,0.42-2.325,0.903-3.396,1.485c-0.368-0.291-0.717-0.61-1.104-0.878
		c-0.396-0.252-0.769-0.544-1.183-0.763c0.258-1.163,0.437-2.367,0.537-3.605c-0.612-0.266-1.226-0.536-1.854-0.751
		c-0.869,0.931-1.641,1.897-2.316,2.895L81.048,68.508z M84.912,74.248c1.307,0.929,2.358,2.209,3.096,3.631
		c0.725,1.435,1.064,3.038,1.047,4.639c-0.001,1.617-0.471,3.205-1.227,4.604c-0.751,1.415-1.893,2.615-3.227,3.504
		c-1.328,0.911-2.891,1.439-4.479,1.604c-1.586,0.179-3.246-0.054-4.721-0.665c-1.48-0.595-2.836-1.534-3.862-2.775
		c-1.039-1.222-1.806-2.691-2.136-4.258c-0.34-1.552-0.354-3.21,0.088-4.764c0.426-1.542,1.195-2.991,2.287-4.169
		c1.103-1.164,2.463-2.104,3.975-2.637c1.516-0.527,3.137-0.7,4.738-0.49C82.091,72.711,83.603,73.324,84.912,74.248z"/>
</g>
<g>
	<path fill="none" d="M73.127,170.838c-1.422-0.75-3.02-1.117-4.62-1.129c-1.615-0.023-3.213,0.417-4.623,1.148
		c-1.43,0.725-2.649,1.845-3.562,3.165c-0.934,1.312-1.488,2.864-1.683,4.449c-0.205,1.583-0.001,3.245,0.581,4.731
		c0.571,1.49,1.485,2.861,2.709,3.91c1.205,1.061,2.659,1.853,4.222,2.209c1.545,0.367,3.203,0.409,4.764-0.004
		c1.55-0.398,3.012-1.141,4.21-2.213c1.182-1.084,2.146-2.427,2.704-3.93c0.552-1.504,0.755-3.123,0.572-4.73
		c-0.212-1.601-0.798-3.123-1.699-4.448C75.797,172.675,74.536,171.604,73.127,170.838z"/>
	<path fill="#282A1F" d="M82.376,177.959l-0.241-1.387c1.026-0.596,2.025-1.276,2.999-2.041c-0.168-0.646-0.458-1.254-0.691-1.877
		c-1.258-0.018-2.518,0.081-3.708,0.263c-0.212-0.419-0.496-0.798-0.74-1.198c-0.261-0.389-0.574-0.745-0.858-1.117
		c0.643-1.018,1.196-2.072,1.705-3.204c-0.448-0.499-0.988-0.896-1.485-1.339c-1.12,0.573-2.188,1.244-3.157,1.957
		c-0.386-0.27-0.809-0.478-1.212-0.719c-0.415-0.221-0.854-0.394-1.278-0.594c0.098-1.191,0.102-2.39,0.026-3.63
		c-0.628-0.229-1.293-0.335-1.941-0.496c-0.728,1.026-1.359,2.12-1.888,3.198c-0.464-0.065-0.938-0.042-1.405-0.066
		c-0.473-0.017-0.939,0.054-1.408,0.075c-0.475-1.133-1.023-2.166-1.663-3.228c-0.66,0.096-1.303,0.276-1.944,0.464
		c-0.176,1.222-0.227,2.493-0.188,3.707c-0.445,0.155-0.86,0.376-1.279,0.593c-0.426,0.198-0.814,0.463-1.212,0.717
		c-0.94-0.773-1.927-1.461-2.979-2.086c-0.537,0.399-1.031,0.848-1.502,1.318c0.416,1.167,0.958,2.308,1.561,3.365
		c-0.318,0.347-0.588,0.734-0.855,1.119c-0.287,0.373-0.505,0.792-0.741,1.197c-1.19-0.25-2.381-0.398-3.604-0.466
		c-0.293,0.603-0.518,1.231-0.722,1.868c0.91,0.838,1.923,1.602,2.944,2.262c-0.123,0.455-0.18,0.922-0.236,1.388
		c-0.08,0.465-0.084,0.935-0.096,1.406c-1.168,0.333-2.309,0.759-3.409,1.267c0.035,0.665,0.098,1.328,0.231,1.981
		c1.209,0.317,2.418,0.53,3.654,0.633c0.123,0.454,0.242,0.909,0.433,1.341c0.168,0.438,0.338,0.877,0.565,1.289
		c-0.853,0.824-1.705,1.753-2.436,2.71c0.363,0.562,0.705,1.14,1.134,1.651c1.232-0.294,2.386-0.656,3.53-1.145
		c0.326,0.336,0.639,0.691,1.01,0.983c0.353,0.312,0.707,0.621,1.099,0.876c-0.373,1.131-0.697,2.344-0.899,3.531
		c0.577,0.33,1.15,0.679,1.768,0.938c0.954-0.825,1.812-1.688,2.598-2.648c0.445,0.149,0.887,0.314,1.348,0.403
		c0.457,0.108,0.915,0.22,1.385,0.265c0.195,1.168,0.476,2.397,0.849,3.543c0.665,0.012,1.335,0.071,1.998,0.002
		c0.456-1.191,0.815-2.332,1.064-3.549c0.46-0.092,0.929-0.138,1.383-0.268c0.447-0.139,0.913-0.229,1.347-0.406
		c0.719,0.949,1.519,1.868,2.397,2.748c0.599-0.296,1.203-0.584,1.776-0.926c-0.146-1.267-0.375-2.47-0.705-3.639
		c0.362-0.297,0.747-0.574,1.095-0.885c0.333-0.332,0.694-0.637,1.002-0.991c1.076,0.505,2.212,0.946,3.397,1.321
		c0.392-0.539,0.795-1.074,1.14-1.643c-0.718-1.055-1.476-2.014-2.312-2.896c0.184-0.433,0.403-0.852,0.562-1.292
		c0.14-0.448,0.325-0.884,0.43-1.341c1.188-0.053,2.399-0.189,3.622-0.414c0.098-0.664,0.198-1.323,0.246-1.988
		c-1.125-0.598-2.256-1.092-3.395-1.485L82.376,177.959z M77.83,183.178c-0.559,1.503-1.523,2.848-2.705,3.928
		c-1.198,1.072-2.66,1.816-4.21,2.215c-1.562,0.414-3.219,0.372-4.764,0.004c-1.562-0.356-3.017-1.148-4.221-2.209
		c-1.225-1.047-2.139-2.42-2.709-3.91c-0.583-1.486-0.787-3.148-0.581-4.732c0.193-1.585,0.748-3.135,1.682-4.449
		c0.912-1.32,2.132-2.44,3.562-3.165c1.41-0.73,3.01-1.173,4.623-1.147c1.601,0.012,3.198,0.379,4.62,1.129
		c1.409,0.766,2.67,1.835,3.576,3.159c0.898,1.325,1.486,2.848,1.699,4.448C78.584,180.054,78.384,181.672,77.83,183.178z"/>
</g>
<path fill="#BA292F" d="M18.789,107.348c2.651,0,5.208-0.039,7.76,0.045c0.349,0.01,0.799,0.572,0.998,0.979
	c3.518,7.214,7.004,14.442,10.499,21.671c0.172,0.354,0.356,0.703,0.645,1.27c0.29-0.553,0.51-0.938,0.701-1.34
	c3.413-7.088,6.854-14.164,10.201-21.281c0.512-1.09,1.104-1.428,2.254-1.381c2.23,0.092,4.467,0.027,6.79,0.027
	c0,14.766,0,29.416,0,44.166c-2.791,0-5.561,0-8.442,0c0-8.479,0-16.9,0-25.322c-0.085-0.029-0.171-0.061-0.257-0.092
	c-0.19,0.359-0.392,0.713-0.574,1.076c-2.427,4.812-4.866,9.621-7.26,14.451c-0.371,0.75-0.809,1.049-1.649,1
	c-1.515-0.088-3.345,0.449-4.465-0.229c-1.111-0.672-1.533-2.51-2.222-3.854c-1.927-3.771-3.833-7.553-5.751-11.326
	c-0.188-0.367-0.407-0.723-0.879-1.014c0,0.418,0,0.84,0,1.258c0,7.559-0.021,15.115,0.023,22.676
	c0.007,1.129-0.265,1.545-1.455,1.498c-2.271-0.092-4.548-0.027-6.917-0.027C18.789,136.84,18.789,122.188,18.789,107.348z"/>
<path d="M213.328,146.553c2.082-2.098,3.878-3.904,5.695-5.736c3.854,3.354,8.486,4.021,13.418,3.299
	c3.881-0.566,5.777-3.305,4.927-6.869c-0.478-1.984-1.824-3.09-3.724-3.453c-2.506-0.484-5.043-0.809-7.564-1.209
	c-0.59-0.096-1.182-0.205-1.76-0.355c-5.371-1.398-8.518-4.689-9.061-9.467c-0.732-6.43,1.479-11.533,6.678-13.869
	c7.364-3.309,14.604-2.783,21.367,1.875c0.521,0.355,0.961,0.824,1.37,1.183c-1.778,1.827-3.506,3.601-5.286,5.427
	c-3.229-2.791-7.039-3.4-11.097-2.787c-3.562,0.537-5.704,3.723-4.703,6.85c0.735,2.299,2.655,3.09,4.763,3.48
	c2.551,0.475,5.142,0.734,7.688,1.221c5.043,0.957,8.515,3.682,9.595,8.924c1.206,5.859-0.662,10.947-5.117,13.959
	c-2.543,1.72-5.395,2.584-8.422,2.85c-4.511,0.393-8.984,0.168-13.14-1.809C216.971,149.115,215.191,147.732,213.328,146.553z"/>
<path d="M195.645,111.904c-1.815,1.877-3.537,3.652-5.271,5.441c-3.207-2.763-6.996-3.402-11.013-2.726
	c-1.223,0.205-2.543,0.871-3.45,1.719c-2.726,2.541-1.845,6.795,1.722,8.029c2.084,0.721,4.367,0.87,6.561,1.276
	c1.258,0.229,2.529,0.388,3.766,0.701c5.707,1.446,8.721,5.176,9,11.055c0.311,6.519-2.825,11.33-9.029,13.39
	c-6.064,2.015-12.132,1.67-18.046-0.735c-2.089-0.851-3.88-2.195-5.351-3.75c1.845-1.847,3.645-3.648,5.515-5.521
	c3.161,2.926,7.13,3.739,11.353,3.541c1.408-0.066,2.863-0.386,4.18-0.894c2.191-0.851,3.234-2.859,2.995-5.205
	c-0.247-2.406-1.476-3.949-3.862-4.429c-2.975-0.594-6.01-0.87-8.971-1.512c-4.932-1.062-8.43-3.781-9.385-9.017
	c-1.488-8.176,3.263-14.799,11.531-16.056c4.17-0.633,8.293-0.379,12.272,1.147C192.273,109.178,194.124,110.404,195.645,111.904z"
	/>
<path fill="#BA292F" d="M142.689,107.438c0,0.569,0,1.041,0,1.513c0,10.595,0,21.188,0,31.784c0,0.479-0.004,0.959,0.019,1.439
	c0.08,1.832,0.929,2.656,2.792,2.693c0.997,0.02,1.995,0.004,3.087,0.004c0,2.199,0,4.338,0,6.479
	c-6.237,0.855-11.783,0.139-13.56-6.334c-0.238-0.877-0.353-1.812-0.354-2.723c-0.023-11.314-0.018-22.631-0.015-33.945
	c0-0.271,0.024-0.543,0.043-0.912C137.341,107.438,139.916,107.438,142.689,107.438z"/>
<path d="M275.171,151.562c-2.833,0-5.575,0-8.405,0c0-14.722,0-29.375,0-44.143c2.783,0,5.551,0,8.405,0
	C275.171,122.098,275.171,136.752,275.171,151.562z"/>
<text transform="matrix(1 0 0 1 159.334 179.6738)" font-family="'DIN-Regular'" font-size="24">framework</text>
<path fill="none" stroke="#000000" stroke-width="0.25" stroke-miterlimit="10" d="M-106.971-0.003"/>
<path fill="none" stroke="#000000" stroke-width="0.25" stroke-miterlimit="10" d="M-9.308-0.003"/>
<path fill="none" stroke="#000000" stroke-width="0.25" stroke-miterlimit="10" d="M9.551,129.921
	c0-61.238,49.552-110.79,110.789-110.79"/>
<g>
	<g>
		<polygon stroke="#000000" stroke-width="0.25" stroke-miterlimit="10" points="267.581,90.107 271.407,92.316 267.581,94.525 		
			"/>
		<polygon stroke="#000000" stroke-width="0.25" stroke-miterlimit="10" points="171.833,94.529 168.005,92.32 171.833,90.111 		"/>
		
			<line fill="none" stroke="#000000" stroke-width="0.25" stroke-miterlimit="10" x1="169.919" y1="92.32" x2="267.583" y2="92.32"/>
	</g>
	
		<line fill="none" stroke="#000000" stroke-width="0.25" stroke-miterlimit="10" x1="164.532" y1="82.359" x2="164.532" y2="102.277"/>
	
		<line fill="none" stroke="#000000" stroke-width="0.25" stroke-miterlimit="10" x1="275.175" y1="82.359" x2="275.175" y2="102.277"/>
</g>
<g>
	<g>
		<polygon stroke="#000000" stroke-width="0.25" stroke-miterlimit="10" points="52.894,93.988 51.127,97.051 49.361,93.988 		"/>
		
			<line fill="none" stroke="#000000" stroke-width="0.25" stroke-miterlimit="10" x1="51.127" y1="96.951" x2="51.127" y2="69.192"/>
		<polygon stroke="#000000" stroke-width="0.25" stroke-miterlimit="10" points="49.361,70.723 51.127,67.661 52.894,70.723 		"/>
	</g>
	<line fill="none" stroke="#000000" stroke-width="0.25" stroke-miterlimit="10" x1="42.786" y1="65.007" x2="59.468" y2="65.007"/>
	<line fill="none" stroke="#000000" stroke-width="0.25" stroke-miterlimit="10" x1="42.786" y1="99.705" x2="59.468" y2="99.705"/>
</g>
<circle fill="#BA292F" cx="96.329" cy="129.403" r="2.982"/>
<circle cx="68.519" cy="179.673" r="3.557"/>
<circle cx="79.213" cy="82.358" r="3.557"/>
<circle cx="109.067" cy="38.936" r="3.557"/>
</svg>
