<?xml version="1.0" encoding="utf-8"?>
<!-- Generator: Adobe Illustrator 16.0.4, SVG Export Plug-In . SVG Version: 6.00 Build 0)  -->
<!DOCTYPE svg PUBLIC "-//W3C//DTD SVG 1.1//EN" "http://www.w3.org/Graphics/SVG/1.1/DTD/svg11.dtd">
<svg version="1.1" id="Layer_1" xmlns="http://www.w3.org/2000/svg" xmlns:xlink="http://www.w3.org/1999/xlink" x="0px" y="0px"
	 width="337.67px" height="207.354px" viewBox="0 0 337.67 207.354" enable-background="new 0 0 337.67 207.354"
	 xml:space="preserve">
<g>
	<path fill="none" d="M113.775,32.108c-1.1-0.764-2.385-1.23-3.707-1.403c-1.334-0.184-2.699,0.02-3.941,0.48
		c-1.256,0.455-2.377,1.257-3.266,2.257c-0.906,0.991-1.523,2.218-1.844,3.509c-0.332,1.288-0.332,2.684,0,3.972
		c0.32,1.291,0.938,2.519,1.844,3.509c0.889,1,2.01,1.802,3.266,2.257c1.242,0.46,2.607,0.664,3.941,0.48
		c1.322-0.172,2.607-0.639,3.707-1.403c1.088-0.774,2.021-1.789,2.637-2.976c0.611-1.188,0.941-2.507,0.953-3.854
		c-0.012-1.347-0.342-2.665-0.953-3.853C115.797,33.897,114.863,32.882,113.775,32.108z"/>
	<path fill="#282A1F" d="M120.701,38.937l-0.059-1.173c0.908-0.389,1.805-0.85,2.688-1.382c-0.074-0.552-0.252-1.084-0.383-1.625
		c-1.037-0.141-2.09-0.188-3.092-0.159c-0.133-0.368-0.328-0.71-0.49-1.066c-0.178-0.349-0.4-0.674-0.598-1.011
		c0.635-0.776,1.201-1.594,1.736-2.478c-0.318-0.457-0.727-0.841-1.092-1.258c-0.984,0.359-1.936,0.807-2.811,1.296
		c-0.291-0.261-0.619-0.477-0.93-0.717c-0.32-0.224-0.664-0.413-0.996-0.62c0.201-0.978,0.326-1.969,0.389-3
		c-0.496-0.255-1.035-0.409-1.555-0.608c-0.705,0.774-1.342,1.615-1.887,2.456c-0.377-0.102-0.771-0.13-1.156-0.199
		c-0.387-0.062-0.781-0.052-1.172-0.081c-0.277-0.984-0.625-1.895-1.047-2.838c-0.557,0.011-1.105,0.097-1.656,0.186
		c-0.27,0.993-0.441,2.04-0.531,3.047c-0.385,0.083-0.75,0.223-1.117,0.359c-0.375,0.12-0.723,0.302-1.076,0.471
		c-0.699-0.734-1.447-1.404-2.252-2.027c-0.484,0.276-0.939,0.595-1.377,0.938c0.227,1.007,0.559,2.007,0.949,2.943
		c-0.301,0.253-0.561,0.546-0.822,0.837c-0.275,0.28-0.498,0.604-0.734,0.916c-0.961-0.327-1.93-0.571-2.934-0.752
		c-0.305,0.467-0.555,0.964-0.787,1.47c0.666,0.787,1.428,1.521,2.205,2.168c-0.148,0.363-0.242,0.744-0.336,1.124
		c-0.113,0.376-0.164,0.765-0.223,1.153c-1,0.159-1.986,0.394-2.947,0.702c-0.039,0.554-0.055,1.108-0.01,1.662
		c0.969,0.385,1.945,0.685,2.957,0.895c0.059,0.387,0.109,0.776,0.223,1.152c0.094,0.38,0.188,0.761,0.336,1.124
		c-0.789,0.596-1.588,1.276-2.289,1.994c0.244,0.5,0.467,1.013,0.77,1.48c1.049-0.117,2.041-0.3,3.035-0.587
		c0.236,0.312,0.459,0.636,0.734,0.916c0.262,0.292,0.521,0.584,0.822,0.837c-0.424,0.896-0.814,1.866-1.104,2.828
		c0.445,0.333,0.881,0.679,1.365,0.953c0.873-0.586,1.67-1.211,2.418-1.926c0.354,0.169,0.701,0.351,1.076,0.471
		c0.367,0.137,0.732,0.276,1.117,0.359c0.043,0.987,0.148,2.032,0.342,3.017c0.549,0.077,1.098,0.196,1.652,0.206
		c0.498-0.939,0.912-1.846,1.242-2.829c0.389-0.029,0.783-0.018,1.17-0.081c0.385-0.068,0.779-0.097,1.156-0.199
		c0.498,0.858,1.066,1.699,1.703,2.516c0.525-0.184,1.055-0.361,1.564-0.586c0.006-1.062-0.061-2.083-0.215-3.083
		c0.332-0.208,0.676-0.397,0.996-0.62c0.311-0.24,0.639-0.456,0.93-0.717c0.84,0.527,1.734,1.008,2.678,1.435
		c0.377-0.406,0.766-0.807,1.109-1.243c-0.488-0.944-1.018-1.814-1.621-2.631c0.197-0.338,0.42-0.662,0.598-1.011
		c0.162-0.356,0.357-0.698,0.49-1.066c0.988,0.078,2.004,0.087,3.039,0.026c0.146-0.536,0.299-1.074,0.404-1.62
		c-0.869-0.609-1.756-1.133-2.656-1.573L120.701,38.937z M116.412,42.79c-0.615,1.187-1.549,2.201-2.637,2.976
		c-1.1,0.764-2.385,1.23-3.707,1.403c-1.334,0.184-2.699-0.02-3.941-0.48c-1.256-0.455-2.377-1.257-3.266-2.257
		c-0.906-0.99-1.523-2.218-1.844-3.509c-0.332-1.288-0.332-2.684,0-3.972c0.32-1.291,0.938-2.518,1.844-3.509
		c0.889-1,2.01-1.802,3.266-2.257c1.242-0.46,2.607-0.664,3.941-0.48c1.322,0.172,2.607,0.639,3.707,1.403
		c1.088,0.774,2.021,1.789,2.637,2.976c0.611,1.188,0.941,2.506,0.953,3.853C117.354,40.283,117.023,41.602,116.412,42.79z"/>
</g>
<g>
	<path fill="none" d="M102.857,119.885c-1.541-1.07-3.339-1.723-5.19-1.965c-1.867-0.257-3.78,0.027-5.52,0.673
		c-1.757,0.638-3.327,1.761-4.571,3.16c-1.268,1.388-2.133,3.104-2.58,4.912c-0.465,1.803-0.465,3.757,0,5.562
		c0.447,1.806,1.312,3.524,2.58,4.911c1.244,1.399,2.814,2.523,4.571,3.161c1.739,0.645,3.652,0.93,5.52,0.672
		c1.852-0.243,3.649-0.894,5.19-1.966c1.521-1.083,2.83-2.505,3.691-4.164c0.854-1.664,1.316-3.511,1.334-5.396
		c-0.018-1.887-0.479-3.732-1.334-5.395C105.688,122.39,104.379,120.969,102.857,119.885z"/>
	<path fill="#BA292F" d="M112.553,129.445l-0.083-1.643c1.272-0.545,2.526-1.189,3.763-1.935c-0.103-0.772-0.352-1.52-0.535-2.275
		c-1.453-0.198-2.926-0.263-4.328-0.223c-0.188-0.516-0.461-0.994-0.688-1.493c-0.248-0.488-0.56-0.943-0.836-1.415
		c0.889-1.087,1.682-2.231,2.432-3.469c-0.447-0.64-1.018-1.177-1.529-1.761c-1.378,0.503-2.711,1.129-3.935,1.815
		c-0.407-0.366-0.868-0.667-1.302-1.003c-0.448-0.314-0.931-0.579-1.396-0.87c0.281-1.367,0.457-2.756,0.546-4.198
		c-0.695-0.357-1.451-0.573-2.179-0.852c-0.986,1.085-1.877,2.261-2.64,3.438c-0.529-0.144-1.08-0.183-1.619-0.278
		c-0.541-0.087-1.094-0.073-1.641-0.114c-0.388-1.377-0.876-2.652-1.467-3.974c-0.777,0.017-1.548,0.136-2.317,0.26
		c-0.377,1.393-0.618,2.857-0.745,4.266c-0.537,0.118-1.05,0.312-1.563,0.504c-0.524,0.169-1.011,0.424-1.506,0.66
		c-0.979-1.028-2.026-1.965-3.154-2.837c-0.678,0.386-1.313,0.832-1.928,1.312c0.317,1.409,0.782,2.808,1.329,4.12
		c-0.42,0.354-0.784,0.764-1.151,1.172c-0.385,0.393-0.695,0.845-1.026,1.281c-1.346-0.457-2.701-0.799-4.108-1.053
		c-0.425,0.655-0.775,1.351-1.102,2.059c0.932,1.103,1.998,2.131,3.088,3.035c-0.208,0.509-0.339,1.042-0.472,1.574
		c-0.158,0.526-0.229,1.07-0.311,1.614c-1.399,0.222-2.78,0.55-4.127,0.981c-0.054,0.777-0.077,1.554-0.014,2.327
		c1.357,0.539,2.725,0.96,4.141,1.253c0.081,0.542,0.152,1.088,0.311,1.613c0.133,0.533,0.264,1.066,0.472,1.574
		c-1.104,0.834-2.225,1.786-3.204,2.791c0.34,0.701,0.651,1.418,1.077,2.071c1.468-0.164,2.855-0.419,4.249-0.82
		c0.331,0.435,0.642,0.889,1.028,1.279c0.365,0.41,0.729,0.82,1.149,1.173c-0.592,1.256-1.139,2.611-1.545,3.96
		c0.624,0.465,1.234,0.948,1.913,1.334c1.222-0.82,2.338-1.695,3.385-2.696c0.495,0.235,0.981,0.49,1.506,0.659
		c0.514,0.191,1.026,0.386,1.563,0.503c0.061,1.381,0.209,2.844,0.479,4.223c0.77,0.109,1.538,0.275,2.314,0.289
		c0.697-1.314,1.277-2.584,1.738-3.959c0.545-0.041,1.098-0.027,1.639-0.115c0.539-0.096,1.09-0.134,1.619-0.275
		c0.696,1.2,1.491,2.379,2.385,3.521c0.733-0.257,1.477-0.506,2.188-0.82c0.01-1.487-0.083-2.915-0.3-4.314
		c0.464-0.293,0.946-0.559,1.395-0.87c0.434-0.336,0.895-0.637,1.302-1.003c1.175,0.738,2.427,1.41,3.748,2.01
		c0.528-0.569,1.071-1.13,1.553-1.739c-0.683-1.323-1.423-2.54-2.269-3.687c0.276-0.473,0.588-0.927,0.836-1.415
		c0.227-0.499,0.502-0.978,0.688-1.491c1.384,0.109,2.806,0.122,4.253,0.035c0.207-0.75,0.419-1.504,0.567-2.267
		c-1.217-0.853-2.458-1.587-3.72-2.204L112.553,129.445z M106.549,134.841c-0.861,1.659-2.17,3.081-3.691,4.164
		c-1.541,1.072-3.339,1.723-5.19,1.966c-1.867,0.258-3.78-0.027-5.52-0.672c-1.757-0.638-3.327-1.762-4.571-3.161
		c-1.268-1.387-2.133-3.105-2.58-4.911c-0.465-1.805-0.465-3.759,0-5.562c0.447-1.808,1.312-3.524,2.58-4.912
		c1.244-1.399,2.814-2.522,4.571-3.16c1.739-0.646,3.652-0.93,5.52-0.673c1.852,0.242,3.649,0.895,5.19,1.965
		c1.521,1.084,2.83,2.505,3.691,4.166c0.854,1.662,1.316,3.508,1.334,5.395C107.865,131.33,107.403,133.177,106.549,134.841z"/>
</g>
<g>
	<path fill="none" d="M84.863,74.164c-1.32-0.917-2.861-1.477-4.448-1.684c-1.601-0.22-3.24,0.023-4.73,0.576
		c-1.506,0.546-2.853,1.509-3.919,2.708c-1.087,1.189-1.828,2.662-2.212,4.211c-0.398,1.546-0.398,3.221,0,4.767
		c0.384,1.549,1.125,3.022,2.212,4.211c1.066,1.199,2.413,2.162,3.919,2.708c1.49,0.553,3.13,0.797,4.73,0.576
		c1.587-0.207,3.128-0.767,4.448-1.684c1.305-0.93,2.426-2.147,3.165-3.571c0.732-1.425,1.129-3.008,1.143-4.624
		c-0.014-1.616-0.41-3.198-1.143-4.623C87.289,76.312,86.167,75.094,84.863,74.164z"/>
	<path fill="#282A1F" d="M93.174,82.358l-0.072-1.407c1.092-0.467,2.166-1.02,3.227-1.659c-0.088-0.662-0.303-1.301-0.459-1.949
		c-1.246-0.17-2.508-0.226-3.711-0.191c-0.16-0.441-0.395-0.852-0.588-1.279c-0.213-0.419-0.48-0.809-0.717-1.213
		c0.762-0.932,1.441-1.913,2.084-2.974c-0.383-0.548-0.873-1.009-1.311-1.509c-1.182,0.431-2.324,0.968-3.373,1.556
		c-0.35-0.313-0.744-0.572-1.115-0.86c-0.385-0.269-0.799-0.495-1.197-0.744c0.242-1.173,0.392-2.362,0.468-3.6
		c-0.595-0.306-1.243-0.49-1.866-0.729c-0.847,0.93-1.609,1.938-2.264,2.946c-0.453-0.122-0.926-0.156-1.387-0.238
		c-0.465-0.075-0.938-0.062-1.406-0.097c-0.333-1.181-0.752-2.274-1.258-3.406c-0.667,0.014-1.326,0.116-1.986,0.223
		c-0.323,1.192-0.529,2.448-0.639,3.656c-0.461,0.1-0.9,0.268-1.341,0.432c-0.448,0.145-0.866,0.362-1.29,0.565
		c-0.839-0.881-1.736-1.685-2.703-2.433c-0.582,0.331-1.127,0.715-1.652,1.125c0.271,1.209,0.67,2.408,1.139,3.532
		c-0.359,0.304-0.673,0.655-0.986,1.005c-0.331,0.336-0.597,0.725-0.881,1.099c-1.152-0.393-2.315-0.686-3.521-0.902
		c-0.364,0.561-0.664,1.157-0.944,1.765c0.8,0.944,1.714,1.825,2.647,2.602c-0.178,0.437-0.291,0.893-0.404,1.349
		c-0.136,0.452-0.197,0.918-0.266,1.384c-1.2,0.19-2.384,0.472-3.538,0.842c-0.046,0.665-0.065,1.33-0.012,1.995
		c1.163,0.462,2.335,0.821,3.55,1.073c0.068,0.465,0.13,0.932,0.266,1.383c0.113,0.456,0.227,0.913,0.404,1.349
		c-0.947,0.715-1.906,1.532-2.747,2.393c0.292,0.601,0.56,1.216,0.924,1.776c1.259-0.141,2.448-0.36,3.642-0.705
		c0.284,0.374,0.55,0.764,0.882,1.099c0.312,0.351,0.626,0.702,0.985,1.004c-0.508,1.076-0.977,2.239-1.324,3.394
		c0.534,0.398,1.059,0.814,1.64,1.145c1.048-0.703,2.004-1.453,2.901-2.312c0.424,0.203,0.842,0.42,1.29,0.565
		c0.44,0.164,0.88,0.33,1.341,0.431c0.052,1.184,0.18,2.438,0.41,3.62c0.66,0.093,1.318,0.235,1.984,0.247
		c0.598-1.127,1.094-2.215,1.489-3.394c0.468-0.035,0.94-0.022,1.405-0.098c0.461-0.082,0.934-0.115,1.387-0.237
		c0.597,1.028,1.279,2.039,2.044,3.019c0.63-0.221,1.266-0.434,1.876-0.703c0.009-1.275-0.071-2.498-0.256-3.698
		c0.396-0.25,0.811-0.478,1.195-0.745c0.371-0.289,0.765-0.547,1.115-0.86c1.008,0.633,2.08,1.209,3.213,1.723
		c0.453-0.487,0.918-0.968,1.33-1.491c-0.584-1.134-1.219-2.177-1.943-3.158c0.236-0.405,0.504-0.794,0.717-1.213
		c0.193-0.428,0.43-0.838,0.588-1.279c1.188,0.094,2.406,0.104,3.646,0.031c0.178-0.644,0.359-1.289,0.486-1.943
		c-1.043-0.731-2.107-1.36-3.189-1.889L93.174,82.358z M88.027,86.982c-0.739,1.424-1.86,2.642-3.165,3.571
		c-1.32,0.917-2.861,1.477-4.448,1.684c-1.601,0.221-3.24-0.023-4.73-0.576c-1.506-0.546-2.853-1.509-3.919-2.708
		c-1.087-1.188-1.828-2.662-2.212-4.211c-0.398-1.546-0.398-3.221,0-4.767c0.384-1.549,1.125-3.021,2.212-4.211
		c1.066-1.199,2.413-2.162,3.919-2.708c1.49-0.553,3.13-0.796,4.73-0.576c1.587,0.207,3.128,0.767,4.448,1.684
		c1.305,0.93,2.426,2.147,3.165,3.571c0.732,1.425,1.129,3.007,1.143,4.623C89.156,83.975,88.76,85.558,88.027,86.982z"/>
</g>
<g>
	<path fill="none" d="M74.169,171.483c-1.32-0.918-2.861-1.477-4.448-1.684c-1.601-0.221-3.24,0.023-4.73,0.576
		c-1.506,0.545-2.853,1.508-3.919,2.707c-1.087,1.189-1.828,2.662-2.212,4.211c-0.398,1.547-0.398,3.221,0,4.768
		c0.384,1.549,1.125,3.021,2.212,4.211c1.066,1.199,2.413,2.162,3.919,2.707c1.49,0.553,3.13,0.797,4.73,0.576
		c1.587-0.207,3.128-0.766,4.448-1.684c1.305-0.93,2.426-2.146,3.164-3.57c0.732-1.426,1.129-3.008,1.144-4.625
		c-0.015-1.615-0.411-3.197-1.144-4.623C76.595,173.63,75.474,172.413,74.169,171.483z"/>
	<path fill="#282A1F" d="M82.481,179.677l-0.072-1.406c1.092-0.467,2.166-1.02,3.226-1.66c-0.088-0.662-0.302-1.301-0.458-1.949
		c-1.246-0.17-2.508-0.225-3.711-0.191c-0.16-0.441-0.395-0.852-0.589-1.279c-0.212-0.418-0.479-0.809-0.716-1.213
		c0.762-0.932,1.441-1.912,2.083-2.973c-0.383-0.549-0.872-1.01-1.31-1.51c-1.182,0.432-2.324,0.969-3.373,1.557
		c-0.35-0.314-0.744-0.572-1.115-0.861c-0.385-0.268-0.799-0.494-1.197-0.744c0.242-1.172,0.392-2.361,0.468-3.6
		c-0.595-0.305-1.243-0.49-1.866-0.729c-0.847,0.93-1.609,1.938-2.264,2.945c-0.453-0.121-0.926-0.156-1.387-0.238
		c-0.465-0.074-0.938-0.062-1.406-0.096c-0.333-1.182-0.752-2.275-1.258-3.406c-0.667,0.014-1.326,0.115-1.986,0.223
		c-0.323,1.191-0.529,2.447-0.639,3.656c-0.461,0.1-0.9,0.268-1.341,0.432c-0.448,0.145-0.866,0.361-1.29,0.564
		c-0.839-0.881-1.736-1.684-2.703-2.432c-0.582,0.33-1.127,0.715-1.652,1.125c0.271,1.209,0.67,2.408,1.139,3.531
		c-0.359,0.305-0.673,0.656-0.986,1.006c-0.331,0.336-0.597,0.725-0.881,1.098c-1.152-0.393-2.315-0.686-3.521-0.902
		c-0.364,0.561-0.664,1.158-0.944,1.766c0.8,0.943,1.714,1.824,2.647,2.602c-0.178,0.436-0.291,0.893-0.404,1.348
		c-0.136,0.453-0.197,0.918-0.266,1.385c-1.2,0.189-2.384,0.471-3.538,0.842c-0.046,0.664-0.065,1.33-0.012,1.994
		c1.163,0.463,2.335,0.822,3.55,1.074c0.068,0.465,0.13,0.932,0.266,1.383c0.113,0.455,0.227,0.912,0.404,1.348
		c-0.947,0.715-1.906,1.533-2.747,2.393c0.292,0.602,0.56,1.217,0.924,1.777c1.259-0.141,2.448-0.361,3.642-0.705
		c0.284,0.373,0.55,0.764,0.882,1.098c0.312,0.352,0.626,0.703,0.985,1.004c-0.508,1.076-0.977,2.24-1.324,3.395
		c0.534,0.398,1.059,0.814,1.64,1.145c1.048-0.703,2.004-1.453,2.901-2.312c0.424,0.203,0.842,0.42,1.29,0.566
		c0.44,0.164,0.88,0.33,1.341,0.43c0.052,1.184,0.18,2.438,0.41,3.621c0.66,0.092,1.318,0.234,1.984,0.246
		c0.598-1.127,1.094-2.215,1.489-3.393c0.468-0.035,0.94-0.023,1.405-0.098c0.461-0.082,0.934-0.115,1.387-0.238
		c0.597,1.029,1.279,2.039,2.044,3.02c0.63-0.221,1.266-0.434,1.876-0.703c0.009-1.275-0.071-2.498-0.256-3.699
		c0.396-0.25,0.811-0.477,1.195-0.744c0.371-0.289,0.766-0.547,1.115-0.861c1.007,0.633,2.08,1.209,3.212,1.723
		c0.454-0.486,0.919-0.967,1.331-1.49c-0.584-1.135-1.22-2.178-1.943-3.158c0.236-0.406,0.504-0.795,0.716-1.213
		c0.194-0.428,0.43-0.838,0.589-1.279c1.187,0.094,2.405,0.104,3.646,0.031c0.177-0.645,0.358-1.289,0.486-1.943
		c-1.043-0.732-2.107-1.361-3.189-1.889L82.481,179.677z M77.333,184.302c-0.738,1.424-1.859,2.641-3.164,3.57
		c-1.32,0.918-2.861,1.477-4.448,1.684c-1.601,0.221-3.24-0.023-4.73-0.576c-1.506-0.545-2.853-1.508-3.919-2.707
		c-1.087-1.189-1.828-2.662-2.212-4.211c-0.398-1.547-0.398-3.221,0-4.768c0.384-1.549,1.125-3.021,2.212-4.211
		c1.066-1.199,2.413-2.162,3.919-2.707c1.49-0.553,3.13-0.797,4.73-0.576c1.587,0.207,3.128,0.766,4.448,1.684
		c1.305,0.93,2.426,2.146,3.164,3.57c0.732,1.426,1.129,3.008,1.144,4.623C78.462,181.294,78.066,182.876,77.333,184.302z"/>
</g>
<path fill-rule="evenodd" clip-rule="evenodd" fill="#BA292F" d="M18.789,107.347c2.652,0,5.208-0.039,7.76,0.045
	c0.349,0.011,0.799,0.573,0.998,0.98c3.518,7.214,7.004,14.444,10.499,21.671c0.172,0.355,0.357,0.703,0.645,1.27
	c0.29-0.553,0.509-0.939,0.701-1.34c3.413-7.088,6.853-14.164,10.201-21.282c0.512-1.09,1.104-1.427,2.254-1.38
	c2.23,0.092,4.467,0.027,6.79,0.027c0,14.766,0,29.416,0,44.166c-2.791,0-5.561,0-8.442,0c0-8.479,0-16.9,0-25.322
	c-0.085-0.029-0.171-0.061-0.257-0.092c-0.191,0.359-0.392,0.713-0.574,1.076c-2.427,4.814-4.867,9.621-7.26,14.451
	c-0.371,0.75-0.809,1.049-1.65,1c-1.514-0.086-3.344,0.451-4.464-0.227c-1.112-0.672-1.534-2.51-2.222-3.855
	c-1.927-3.771-3.833-7.551-5.751-11.326c-0.188-0.367-0.407-0.721-0.879-1.012c0,0.418,0,0.838,0,1.256
	c0,7.559-0.022,15.117,0.023,22.676c0.007,1.129-0.264,1.545-1.455,1.498c-2.271-0.092-4.548-0.027-6.917-0.027
	C18.789,136.84,18.789,122.188,18.789,107.347z"/>
<path fill-rule="evenodd" clip-rule="evenodd" d="M213.328,146.553c2.082-2.098,3.878-3.904,5.697-5.736
	c3.854,3.352,8.486,4.02,13.418,3.299c3.88-0.568,5.777-3.305,4.925-6.871c-0.476-1.984-1.824-3.088-3.722-3.453
	c-2.506-0.484-5.044-0.807-7.566-1.209c-0.59-0.094-1.181-0.205-1.758-0.355c-5.373-1.4-8.518-4.691-9.061-9.467
	c-0.732-6.43,1.479-11.533,6.678-13.869c7.364-3.309,14.603-2.783,21.367,1.874c0.52,0.356,0.961,0.825,1.37,1.183
	c-1.779,1.828-3.506,3.6-5.286,5.426c-3.23-2.791-7.04-3.4-11.097-2.787c-3.562,0.537-5.704,3.723-4.703,6.85
	c0.735,2.299,2.655,3.09,4.763,3.48c2.55,0.475,5.14,0.736,7.688,1.221c5.043,0.957,8.515,3.682,9.595,8.924
	c1.206,5.859-0.663,10.947-5.118,13.959c-2.543,1.719-5.394,2.584-8.421,2.848c-4.511,0.393-8.985,0.168-13.14-1.807
	C216.971,149.115,215.192,147.732,213.328,146.553z"/>
<path fill-rule="evenodd" clip-rule="evenodd" d="M195.645,111.904c-1.817,1.877-3.538,3.652-5.271,5.441
	c-3.207-2.762-6.996-3.402-11.011-2.725c-1.224,0.205-2.543,0.871-3.452,1.719c-2.725,2.541-1.843,6.795,1.722,8.029
	c2.084,0.721,4.367,0.871,6.561,1.277c1.256,0.23,2.529,0.387,3.764,0.701c5.707,1.447,8.721,5.176,9,11.055
	c0.31,6.518-2.825,11.33-9.03,13.389c-6.064,2.014-12.131,1.67-18.045-0.736c-2.089-0.85-3.88-2.195-5.351-3.75
	c1.845-1.846,3.645-3.648,5.515-5.52c3.161,2.926,7.129,3.74,11.352,3.541c1.408-0.066,2.864-0.385,4.179-0.893
	c2.193-0.85,3.236-2.859,2.995-5.205c-0.247-2.406-1.474-3.949-3.862-4.428c-2.973-0.594-6.01-0.871-8.971-1.512
	c-4.931-1.062-8.429-3.781-9.383-9.016c-1.49-8.176,3.261-14.799,11.531-16.055c4.17-0.633,8.292-0.379,12.272,1.148
	C192.273,109.177,194.124,110.404,195.645,111.904z"/>
<path fill-rule="evenodd" clip-rule="evenodd" fill="#BA292F" d="M142.689,107.437c0,0.57,0,1.041,0,1.512
	c0,10.595,0,21.19,0,31.786c0,0.479-0.004,0.959,0.018,1.439c0.08,1.832,0.928,2.656,2.792,2.693
	c0.997,0.02,1.995,0.004,3.087,0.004c0,2.201,0,4.338,0,6.479c-6.238,0.855-11.783,0.139-13.559-6.334
	c-0.239-0.877-0.353-1.814-0.354-2.723c-0.023-11.314-0.017-22.631-0.015-33.945c0-0.272,0.025-0.544,0.043-0.912
	C137.341,107.437,139.916,107.437,142.689,107.437z"/>
<path fill-rule="evenodd" clip-rule="evenodd" d="M275.171,151.562c-2.833,0-5.576,0-8.405,0c0-14.721,0-29.375,0-44.142
	c2.783,0,5.55,0,8.405,0C275.171,122.098,275.171,136.752,275.171,151.562z"/>
<path fill="none" stroke="#000000" stroke-width="0.25" stroke-miterlimit="10" d="M-106.971-0.003"/>
<path fill="none" stroke="#000000" stroke-width="0.25" stroke-miterlimit="10" d="M-9.308-0.003"/>
<g>
	<path fill="none" stroke="#000000" stroke-width="0.25" stroke-miterlimit="10" d="M337.671,82.353c0,69.092-55.908,125-125,125"/>
	<path fill="none" stroke="#000000" stroke-width="0.25" stroke-miterlimit="10" d="M0,110.789C0,49.552,49.552,0,110.789,0"/>
	<g>
		<polygon stroke="#000000" stroke-width="0.25" stroke-miterlimit="10" points="267.578,83.83 271.405,86.04 267.578,88.249 		"/>
		<polygon stroke="#000000" stroke-width="0.25" stroke-miterlimit="10" points="171.83,88.253 168.002,86.043 171.83,83.834 		"/>
		
			<line fill="none" stroke="#000000" stroke-width="0.25" stroke-miterlimit="10" x1="169.916" y1="86.044" x2="267.579" y2="86.044"/>
	</g>
	<line fill="none" stroke="#000000" stroke-width="0.25" stroke-miterlimit="10" x1="164.53" y1="76.082" x2="164.53" y2="96"/>
	<line fill="none" stroke="#000000" stroke-width="0.25" stroke-miterlimit="10" x1="275.171" y1="76.082" x2="275.171" y2="96"/>
	<g>
		<polygon stroke="#000000" stroke-width="0.25" stroke-miterlimit="10" points="48.821,93.986 47.054,97.047 45.287,93.986 		"/>
		
			<line fill="none" stroke="#000000" stroke-width="0.25" stroke-miterlimit="10" x1="47.054" y1="96.948" x2="47.054" y2="69.189"/>
		<polygon stroke="#000000" stroke-width="0.25" stroke-miterlimit="10" points="45.287,70.72 47.054,67.658 48.821,70.72 		"/>
	</g>
	<line fill="none" stroke="#000000" stroke-width="0.25" stroke-miterlimit="10" x1="38.713" y1="65.004" x2="55.395" y2="65.004"/>
	<line fill="none" stroke="#000000" stroke-width="0.25" stroke-miterlimit="10" x1="38.713" y1="99.702" x2="55.395" y2="99.702"/>
</g>
</svg>
