<?xml version="1.0" encoding="utf-8"?>
<!-- Generator: Adobe Illustrator 16.0.4, SVG Export Plug-In . SVG Version: 6.00 Build 0)  -->
<!DOCTYPE svg PUBLIC "-//W3C//DTD SVG 1.1//EN" "http://www.w3.org/Graphics/SVG/1.1/DTD/svg11.dtd">
<svg version="1.1" id="Layer_1" xmlns="http://www.w3.org/2000/svg" xmlns:xlink="http://www.w3.org/1999/xlink" x="0px" y="0px"
	 width="1606.5px" height="1080px" viewBox="-820 -449 1606.5 1080" enable-background="new -820 -449 1606.5 1080"
	 xml:space="preserve">
<g>
	
		<line fill="none" stroke="#000000" stroke-width="1.5" stroke-miterlimit="10" x1="-386.484" y1="-60.982" x2="-285.322" y2="217.061"/>
	
		<line fill="none" stroke="#000000" stroke-width="1.5" stroke-miterlimit="10" x1="-386.484" y1="-60.982" x2="-210.038" y2="-317.617"/>
	
		<line fill="none" stroke="#000000" stroke-width="1.5" stroke-miterlimit="10" x1="-285.322" y1="217.061" x2="-449.688" y2="514.176"/>
	
		<line fill="none" stroke="#BA292F" stroke-width="1.5" stroke-miterlimit="10" x1="-335.903" y1="79.224" x2="-285.322" y2="218.24"/>
</g>
<g>
	<path fill="none" d="M-192.017-363.355c-7.347-2.938-15.367-3.914-23.216-3.151c-7.925,0.71-15.508,3.706-22.045,8.002
		c-6.631,4.292-12.017,10.395-15.814,17.341c-3.896,6.909-5.812,14.798-5.954,22.66c-0.2,7.855,1.656,15.898,5.278,22.874
		c3.563,7.009,8.753,13.26,15.289,17.759c6.456,4.574,13.974,7.703,21.809,8.652c7.766,0.999,15.886,0.36,23.329-2.476
		c7.389-2.748,14.162-7.152,19.486-13.001c5.238-5.899,9.254-12.992,11.229-20.651c1.934-7.653,2.086-15.688,0.366-23.465
		c-1.861-7.743-5.52-14.894-10.608-20.923C-177.994-355.75-184.717-360.348-192.017-363.355z"/>
	<path fill="#282A1F" d="M-143.051-333.245l-1.902-6.671c4.71-3.446,9.261-7.292,13.643-11.538
		c-1.161-3.079-2.887-5.911-4.375-8.845c-6.147,0.565-12.282,1.694-18.014,3.194c-1.253-1.941-2.831-3.65-4.245-5.488
		c-1.484-1.775-3.192-3.351-4.788-5.03c2.626-5.308,4.8-10.776,6.704-16.58c-2.436-2.211-5.307-3.875-7.962-5.792
		c-5.189,3.37-10.078,7.223-14.467,11.207c-2.028-1.124-4.202-1.931-6.313-2.901c-2.133-0.863-4.367-1.489-6.554-2.239
		c-0.142-5.905-0.739-11.78-1.749-17.792c-3.198-0.823-6.508-0.981-9.758-1.437c-3.038,5.396-5.581,11.081-7.601,16.651
		c-2.311-0.096-4.608,0.277-6.919,0.389c-2.317,0.153-4.563,0.739-6.857,1.094c-2.901-5.296-6.118-10.083-9.807-14.955
		c-3.195,0.805-6.233,2.029-9.284,3.281c-0.242,6.07,0.17,12.335,0.993,18.251c-2.104,0.986-4.026,2.283-5.956,3.546
		c-2.006,1.186-3.766,2.707-5.561,4.15c-5.001-3.298-10.202-6.167-15.671-8.678c-2.41,2.229-4.608,4.676-6.678,7.235
		c2.649,5.504,5.894,10.822,9.374,15.685c-1.394,1.851-2.505,3.89-3.616,5.911c-1.207,1.974-2.063,4.139-3.01,6.253
		c-5.969-0.608-11.867-0.722-17.902-0.424c-1.127,3.091-1.901,6.289-2.565,9.503c4.877,3.645,10.236,6.859,15.576,9.555
		c-0.367,2.289-0.398,4.606-0.445,6.923c-0.142,2.309,0.078,4.632,0.253,6.938c-5.543,2.24-10.917,4.912-16.039,7.962
		c0.507,3.238,1.152,6.453,2.15,9.587c6.089,0.926,12.112,1.355,18.215,1.22c0.857,2.159,1.663,4.32,2.82,6.342
		c1.059,2.064,2.092,4.13,3.428,6.023c-3.746,4.479-7.455,9.464-10.519,14.527c2.061,2.561,4.035,5.212,6.4,7.495
		c5.884-2.063,11.353-4.438,16.689-7.414c1.781,1.478,3.495,3.051,5.443,4.303c1.904,1.331,3.777,2.667,5.847,3.726
		c-1.252,5.72-2.199,11.826-2.595,17.748c2.995,1.331,5.974,2.742,9.12,3.676c4.248-4.534,8.008-9.197,11.371-14.308
		c2.266,0.502,4.499,1.091,6.813,1.28c2.3,0.295,4.583,0.615,6.917,0.587c1.559,5.618,3.55,11.506,5.979,16.913
		c3.27-0.282,6.586-0.332,9.783-1.004c1.619-6.063,2.799-11.844,3.391-17.944c2.205-0.687,4.488-1.146,6.632-2.02
		c2.126-0.9,4.349-1.595,6.389-2.684c4.015,4.286,8.393,8.375,13.151,12.233c2.777-1.767,5.602-3.48,8.234-5.455
		c-1.379-6.123-3.123-11.916-5.339-17.471c1.639-1.636,3.365-3.185,4.912-4.894c1.472-1.796,3.079-3.47,4.403-5.365
		c5.538,1.914,11.324,3.498,17.33,4.704c1.631-2.843,3.345-5.667,4.733-8.634c-4.066-4.782-8.268-9.09-12.831-12.998
		c0.684-2.21,1.542-4.372,2.098-6.621c0.456-2.262,1.124-4.49,1.4-6.79c5.792-0.863,11.663-2.163,17.544-3.888
		c0.124-3.281,0.288-6.585,0.164-9.864c-5.809-2.346-11.613-4.19-17.382-5.526L-143.051-333.245z M-162.626-305.346
		c-1.963,7.653-6.003,14.733-11.235,20.642c-5.312,5.865-12.098,10.257-19.485,13.011c-7.438,2.832-15.564,3.463-23.324,2.469
		c-7.835-0.952-15.359-4.077-21.809-8.651c-6.531-4.5-11.714-10.75-15.283-17.753c-3.622-6.975-5.484-15.024-5.284-22.874
		c0.124-7.862,2.051-15.758,5.954-22.666c3.791-6.946,9.183-13.05,15.808-17.341c6.543-4.302,14.126-7.287,22.051-7.997
		c7.844-0.769,15.87,0.22,23.216,3.146c7.293,3.007,14.017,7.615,19.148,13.633c5.088,6.035,8.741,13.18,10.608,20.923
		C-160.54-321.045-160.687-313.005-162.626-305.346z"/>
</g>
<g>
	<path fill="none" d="M-242.899,163.738c-8.646-6.951-18.978-11.539-29.783-13.721c-10.902-2.293-22.293-1.408-32.83,1.697
		c-10.619,3.023-20.342,8.998-28.247,16.736c-8.054,7.664-13.858,17.414-17.235,27.902c-3.492,10.453-4.3,21.963-2.291,32.783
		c1.884,10.857,6.282,21.32,13.186,30.025c6.755,8.756,15.542,16.039,25.638,20.529c9.988,4.525,21.148,7.008,32.275,6.244
		c11.019-0.658,21.875-3.773,31.401-9.453c9.411-5.777,17.719-13.615,23.477-23.029c5.72-9.467,9.203-20.168,10.09-31.26
		c0.666-11.139-1.291-22.199-5.645-32.379C-227.244,179.68-234.375,170.75-242.899,163.738z"/>
	<path fill="#BA292F" d="M-189.676,224.104l0.189-9.725c7.725-2.701,15.383-5.98,22.985-9.869
		c-0.292-4.584-1.449-9.109-2.216-13.633c-8.481-1.779-17.146-2.773-25.421-3.096c-0.892-3.129-2.303-6.043-3.44-9.084
		c-1.264-2.979-2.912-5.783-4.343-8.691c5.685-6.039,10.833-12.457,15.763-19.451c-2.364-3.959-5.515-7.365-8.28-11.014
		c-8.329,2.391-16.449,5.547-23.956,9.074c-2.239-2.32-4.845-4.283-7.264-6.453c-2.511-2.039-5.251-3.811-7.872-5.701
		c2.216-7.955,3.818-16.082,4.949-24.52c-3.957-2.391-8.323-3.982-12.502-5.934c-6.253,6.002-11.996,12.561-16.986,19.197
		c-3.062-1.074-6.289-1.537-9.434-2.314c-3.149-0.738-6.418-0.883-9.628-1.357c-1.726-8.275-4.071-15.998-7.01-24.043
		c-4.591-0.197-9.188,0.172-13.769,0.598c-2.796,8.053-4.819,16.588-6.147,24.842c-3.215,0.475-6.325,1.396-9.428,2.334
		c-3.152,0.783-6.135,2.082-9.148,3.271c-5.351-6.459-11.131-12.428-17.42-18.025c-4.167,1.984-8.083,4.352-11.921,6.938
		c1.296,8.457,3.455,16.877,6.142,24.842c-2.623,1.916-4.94,4.191-7.264,6.441c-2.439,2.158-4.445,4.703-6.571,7.123
		c-7.749-3.246-15.599-5.824-23.789-7.908c-2.779,3.693-5.12,7.652-7.341,11.699c5.036,6.893,10.9,13.396,16.952,19.174
		c-1.437,2.891-2.431,5.99-3.435,9.074c-1.146,3.035-1.792,6.221-2.505,9.396c-8.334,0.727-16.613,2.094-24.74,4.068
		c-0.638,4.553-1.094,9.119-1.042,13.701c7.776,3.742,15.667,6.777,23.895,9.096c0.253,3.232,0.45,6.49,1.177,9.639
		c0.566,3.199,1.111,6.396,2.133,9.48c-6.848,4.473-13.852,9.602-20.043,15.139c1.715,4.289,3.259,8.633,5.503,12.656
		c8.719-0.363,17.004-1.295,25.385-3.076c1.774,2.713,3.416,5.512,5.532,7.971c1.974,2.568,3.959,5.133,6.282,7.389
		c-4.005,7.168-7.794,14.918-10.739,22.705c3.487,3.012,6.886,6.107,10.727,8.67c7.541-4.33,14.481-9.027,21.064-14.5
		c2.825,1.594,5.581,3.303,8.617,4.527c2.956,1.326,5.888,2.676,9.001,3.59c-0.21,8.172,0.061,16.863,1.083,25.094
		c4.493,0.957,8.949,2.262,13.518,2.668c4.652-7.477,8.593-14.709,11.878-22.631c3.229-0.018,6.49,0.293,9.71,0
		c3.215-0.354,6.484-0.354,9.659-0.953c3.605,7.342,7.806,14.648,12.612,21.748c4.426-1.213,8.926-2.367,13.24-3.938
		c0.667-8.75,0.707-17.223,0.006-25.547c2.854-1.545,5.803-2.908,8.58-4.553c2.695-1.807,5.538-3.393,8.092-5.379
		c6.621,4.83,13.726,9.316,21.266,13.408c3.345-3.129,6.779-6.229,9.876-9.615c-3.481-8.07-7.348-15.562-11.856-22.672
		c1.827-2.666,3.848-5.234,5.512-8c1.556-2.84,3.365-5.541,4.676-8.496c8.114,1.213,16.489,1.871,25.061,1.961
		c1.529-4.338,3.09-8.715,4.269-13.146c-6.822-5.541-13.838-10.379-21.024-14.533L-189.676,224.104z M-227.302,253.447
		c-5.757,9.42-14.066,17.27-23.477,23.025c-9.532,5.689-20.4,8.77-31.401,9.457c-11.11,0.764-22.276-1.719-32.275-6.238
		c-10.095-4.49-18.888-11.762-25.639-20.535c-6.908-8.705-11.301-19.162-13.186-30.025c-1.997-10.814-1.194-22.336,2.294-32.785
		c3.375-10.48,9.184-20.234,17.232-27.898c7.904-7.746,17.627-13.715,28.247-16.738c10.519-3.082,21.916-3.996,32.833-1.697
		c10.813,2.193,21.134,6.775,29.779,13.715c8.519,7.023,15.653,15.941,20.043,26.088c4.349,10.158,6.311,21.229,5.645,32.355
		C-218.093,233.281-221.582,243.986-227.302,253.447z"/>
</g>
<g>
	<path fill="none" d="M-430.433-100.94c-6.446,6.967-10.998,15.521-13.514,24.64c-2.603,9.197-2.525,18.978-0.523,28.158
		c1.963,9.26,6.49,17.936,12.632,25.159c6.063,7.339,14.072,12.892,22.83,16.401c8.718,3.604,18.519,4.99,27.903,3.924
		c9.385-0.969,18.605-4.083,26.467-9.479c7.883-5.255,14.634-12.346,19.078-20.704c4.456-8.268,7.241-17.673,7.264-27.21
		c0.095-9.463-1.922-18.938-6.208-27.419c-4.367-8.404-10.574-15.968-18.302-21.46c-7.737-5.459-16.669-9.09-26.118-10.496
		c-9.462-1.247-19.05-0.236-27.999,2.889C-415.862-113.375-423.914-107.808-430.433-100.94z"/>
	<path fill="#282A1F" d="M-375.639-142.842l-8.286-0.739c-1.838-6.776-4.19-13.517-7.05-20.255
		c-3.948-0.029-7.861,0.709-11.78,1.082c-2.026,7.157-3.391,14.504-4.173,21.56c-2.707,0.58-5.307,1.613-7.968,2.393
		c-2.629,0.906-5.134,2.141-7.688,3.203c-4.828-5.234-10.005-10.011-15.696-14.646c-3.524,1.792-6.626,4.28-9.919,6.433
		c1.561,7.275,3.767,14.403,6.334,21.02c-2.11,1.798-3.954,3.879-5.945,5.819c-1.891,2.031-3.558,4.265-5.342,6.395
		c-6.661-2.384-13.495-4.246-20.686-5.711c-2.277,3.24-3.878,6.875-5.792,10.326c4.745,5.734,10.011,11.015,15.379,15.679
		c-1.089,2.548-1.686,5.295-2.537,7.921c-0.822,2.658-1.134,5.443-1.726,8.156c-7.191,0.975-13.924,2.537-20.974,4.562
		c-0.462,3.913-0.404,7.855-0.326,11.798c6.716,2.871,13.901,5.105,20.871,6.756c0.205,2.781,0.831,5.477,1.417,8.201
		c0.491,2.745,1.419,5.368,2.25,8.015c-5.838,4.185-11.287,8.773-16.47,13.811c1.463,3.677,3.267,7.189,5.229,10.585
		c7.305-0.588,14.653-1.936,21.607-3.757c1.492,2.352,3.281,4.479,5.067,6.603c1.701,2.211,3.764,4.09,5.714,6.058
		c-3.244,6.418-5.916,12.972-8.173,19.864c2.99,2.588,6.222,4.822,9.556,6.981c6.175-3.908,12.086-8.522,17.407-13.342
		c2.404,1.396,4.987,2.424,7.558,3.451c2.542,1.178,5.212,1.917,7.89,2.712c0.124,7.172,0.805,14.346,2.014,21.403
		c3.856,0.816,7.738,1.465,11.674,1.708c3.659-6.429,6.72-12.995,9.197-19.898c2.791-0.014,5.566,0,8.317-0.42
		c2.764-0.283,5.529-0.586,8.23-1.241c3.405,6.124,7.399,12.4,11.751,18.033c3.764-1.212,7.57-2.277,11.151-3.948
		c0.208-7.483-0.103-14.617-1.128-21.887c2.424-1.353,4.923-2.588,7.157-4.262c2.312-1.547,4.623-3.091,6.699-4.94
		c5.867,3.853,12.288,7.557,18.769,10.539c2.774-2.808,5.633-5.543,8.043-8.671c-3.243-6.708-6.842-12.926-11.139-18.871
		c1.535-2.312,3.157-4.58,4.366-7.082c1.319-2.445,2.649-4.886,3.631-7.501c6.975,0.658,14.409,0.947,21.52,0.581
		c1.099-3.783,2.458-7.518,3.079-11.405c-6.106-4.428-12.068-8.228-18.654-11.503c0.185-2.777,0.657-5.527,0.592-8.309
		c-0.108-2.762,0.089-5.564-0.243-8.323c6.502-2.646,12.987-5.798,19.344-9.48c-0.779-3.863-1.501-7.76-2.565-11.555
		c-7.463-1.099-14.68-1.631-21.854-1.529c-1.135-2.525-2.127-5.148-3.377-7.614c-1.388-2.403-2.574-4.923-4.112-7.229
		c4.533-5.376,8.787-11.175,12.735-17.388c-2.488-3.056-4.914-6.17-7.642-9.007c-7.108,2.482-13.74,5.336-20.071,8.777
		c-2.174-1.721-4.237-3.604-6.525-5.19c-2.341-1.488-4.543-3.214-6.99-4.51c1.523-6.871,2.583-13.988,3.172-21.307
		c-3.616-1.571-7.244-3.166-10.958-4.439c-5.133,5.504-9.696,11.212-13.687,17.111L-375.639-142.842z M-352.8-108.919
		c7.726,5.492,13.936,13.056,18.297,21.459c4.286,8.481,6.289,17.956,6.19,27.419c-0.005,9.557-2.786,18.942-7.252,27.21
		c-4.438,8.363-11.189,15.455-19.072,20.709c-7.85,5.386-17.088,8.499-26.473,9.48c-9.373,1.06-19.186-0.329-27.903-3.936
		c-8.748-3.521-16.761-9.074-22.825-16.401c-6.142-7.223-10.674-15.904-12.626-25.165c-2.008-9.174-2.092-18.975,0.523-28.158
		c2.516-9.114,7.062-17.679,13.514-24.64c6.519-6.879,14.56-12.435,23.494-15.586c8.96-3.113,18.542-4.136,28.004-2.895
		C-369.474-118.003-360.537-114.374-352.8-108.919z"/>
</g>
<g>
	<path fill="none" d="M-422.454,461.951c-8.403-4.432-17.849-6.596-27.306-6.672c-9.543-0.131-18.989,2.471-27.323,6.787
		c-8.45,4.281-15.656,10.91-21.052,18.703c-5.518,7.754-8.793,16.926-9.945,26.289c-1.211,9.367-0.006,19.178,3.435,27.967
		c3.374,8.789,8.775,16.893,16.011,23.09c7.119,6.273,15.714,10.959,24.951,13.055c9.132,2.17,18.932,2.426,28.159-0.023
		c9.16-2.336,17.8-6.744,24.881-13.078c6.987-6.406,12.684-14.336,15.982-23.229c3.262-8.891,4.462-18.461,3.38-27.953
		c-1.252-9.457-4.715-18.461-10.04-26.279C-406.673,472.814-414.125,466.486-422.454,461.951z"/>
	<path fill="#282A1F" d="M-367.79,504.041l-1.425-8.199c6.066-3.52,11.971-7.535,17.725-12.061
		c-0.992-3.814-2.707-7.414-4.083-11.092c-7.434-0.113-14.882,0.471-21.915,1.555c-1.253-2.482-2.932-4.721-4.372-7.08
		c-1.544-2.303-3.395-4.4-5.071-6.602c3.798-6.021,7.068-12.244,10.075-18.932c-2.646-2.957-5.838-5.295-8.777-7.92
		c-6.62,3.387-12.931,7.352-18.656,11.566c-2.283-1.6-4.782-2.822-7.166-4.252c-2.449-1.307-5.047-2.332-7.552-3.51
		c0.58-7.037,0.603-14.131,0.153-21.461c-3.711-1.35-7.642-1.975-11.472-2.92c-4.303,6.059-8.03,12.525-11.156,18.896
		c-2.744-0.381-5.544-0.254-8.306-0.393c-2.796-0.104-5.55,0.33-8.32,0.449c-2.808-6.705-6.048-12.801-9.829-19.08
		c-3.902,0.566-7.703,1.615-11.492,2.734c-1.039,7.227-1.342,14.744-1.111,21.91c-2.63,0.912-5.083,2.227-7.559,3.51
		c-2.516,1.166-4.811,2.736-7.162,4.236c-5.556-4.564-11.391-8.635-17.607-12.328c-3.175,2.355-6.095,5.016-8.877,7.791
		c2.459,6.893,5.662,13.645,9.227,19.887c-1.882,2.047-3.478,4.332-5.053,6.605c-1.697,2.207-2.987,4.674-4.381,7.076
		c-7.033-1.477-14.071-2.348-21.301-2.766c-1.731,3.574-3.062,7.268-4.268,11.037c5.379,4.951,11.368,9.484,17.402,13.369
		c-0.728,2.688-1.065,5.463-1.397,8.213c-0.47,2.752-0.497,5.539-0.566,8.311c-6.902,1.973-13.647,4.49-20.149,7.49
		c0.208,3.928,0.581,7.852,1.365,11.705c7.145,1.863,14.29,3.121,21.597,3.738c0.728,2.691,1.429,5.371,2.557,7.934
		c0.993,2.586,2,5.184,3.34,7.617c-5.04,4.873-10.075,10.357-14.396,16.012c2.145,3.322,4.165,6.752,6.701,9.748
		c7.281-1.73,14.104-3.861,20.861-6.766c1.929,1.986,3.778,4.082,5.971,5.814c2.087,1.842,4.179,3.664,6.496,5.17
		c-2.204,6.688-4.121,13.854-5.312,20.871c3.408,1.953,6.796,4.018,10.447,5.541c5.639-4.865,10.71-9.975,15.356-15.646
		c2.629,0.883,5.244,1.854,7.968,2.389c2.702,0.633,5.408,1.297,8.185,1.559c1.154,6.904,2.814,14.17,5.019,20.941
		c3.93,0.086,7.89,0.426,11.809,0.008c2.695-7.021,4.816-13.773,6.288-20.973c2.719-0.541,5.492-0.812,8.174-1.588
		c2.643-0.818,5.396-1.348,7.962-2.396c4.25,5.607,8.978,11.045,14.167,16.244c3.541-1.748,7.11-3.451,10.496-5.477
		c-0.863-7.492-2.216-14.59-4.165-21.504c2.139-1.756,4.413-3.398,6.47-5.232c1.968-1.961,4.102-3.775,5.921-5.861
		c6.361,2.988,13.073,5.596,20.078,7.812c2.317-3.186,4.698-6.35,6.739-9.719c-4.242-6.25-8.724-11.92-13.666-17.119
		c1.089-2.562,2.381-5.043,3.322-7.641c0.829-2.645,1.922-5.219,2.542-7.92c7.021-0.32,14.178-1.115,21.404-2.447
		c0.58-3.928,1.172-7.828,1.454-11.752c-6.649-3.533-13.332-6.453-20.064-8.775L-367.79,504.041z M-394.656,534.887
		c-3.305,8.891-9.002,16.832-15.989,23.219c-7.081,6.336-15.721,10.729-24.881,13.086c-9.232,2.449-19.027,2.209-28.159,0.045
		c-9.231-2.107-17.832-6.783-24.945-13.068c-7.241-6.195-12.643-14.311-16.011-23.102c-3.446-8.77-4.652-18.596-3.435-27.957
		c1.141-9.371,4.421-18.539,9.939-26.295c5.391-7.803,12.602-14.42,21.052-18.715c8.334-4.305,17.792-6.924,27.323-6.768
		c9.463,0.07,18.903,2.24,27.306,6.674c8.329,4.523,15.781,10.848,21.136,18.67c5.308,7.826,8.782,16.834,10.041,26.285
		C-390.201,516.434-391.384,525.982-394.656,534.887z"/>
</g>
<path fill="#BA292F" d="M-743.605,86.712c15.667,0,30.781-0.231,45.862,0.265c2.062,0.058,4.724,3.382,5.898,5.787
	c20.793,42.633,41.396,85.355,62.052,128.078c1.016,2.096,2.104,4.156,3.813,7.512c1.713-3.27,3.015-5.549,4.144-7.92
	c20.172-41.891,40.509-83.715,60.288-125.779c3.028-6.442,6.525-8.44,13.325-8.162c13.18,0.542,26.4,0.158,40.13,0.158
	c0,87.275,0,173.855,0,261.031c-16.496,0-32.867,0-49.896,0c0-50.111,0-99.879,0-149.654c-0.501-0.174-1.01-0.365-1.518-0.543
	c-1.122,2.117-2.317,4.215-3.394,6.355c-14.342,28.443-28.757,56.863-42.906,85.41c-2.193,4.432-4.782,6.197-9.746,5.91
	c-8.955-0.52-19.771,2.654-26.388-1.352c-6.568-3.982-9.062-14.844-13.134-22.773c-11.391-22.293-22.654-44.652-33.99-66.941
	c-1.111-2.172-2.407-4.283-5.194-6.002c0,2.469,0,4.973,0,7.443c0,44.68-0.125,89.324,0.136,134.021
	c0.04,6.67-1.568,9.131-8.601,8.854c-13.421-0.543-26.878-0.156-40.88-0.156C-743.605,261.02-743.605,174.422-743.605,86.712z"/>
<path d="M406.175,318.424c12.305-12.402,22.918-23.074,33.66-33.9c22.773,19.824,50.139,23.762,79.305,19.502
	c22.936-3.338,34.127-19.537,29.117-40.588c-2.822-11.717-10.781-18.273-22.008-20.408c-14.811-2.85-29.805-4.797-44.709-7.145
	c-3.486-0.578-6.982-1.213-10.398-2.098c-31.744-8.258-50.342-27.709-53.564-55.949c-4.314-38.02,8.74-68.164,39.48-81.973
	c43.512-19.568,86.316-16.446,126.287,11.082c3.082,2.096,5.678,4.861,8.086,6.992c-10.498,10.803-20.721,21.285-31.23,32.078
	c-19.082-16.494-41.604-20.096-65.598-16.473c-21.049,3.174-33.713,22.002-27.797,40.482c4.346,13.6,15.693,18.273,28.162,20.57
	c15.074,2.805,30.395,4.342,45.439,7.215c29.807,5.656,50.336,21.773,56.719,52.742c7.117,34.631-3.912,64.703-30.242,82.502
	c-15.031,10.182-31.896,15.273-49.775,16.854c-26.674,2.338-53.096,0.998-77.672-10.701
	C427.702,333.576,417.187,325.398,406.175,318.424z"/>
<path d="M301.659,113.643c-10.713,11.1-20.906,21.588-31.15,32.156c-18.953-16.334-41.348-20.104-65.09-16.115
	c-7.225,1.211-15.027,5.15-20.391,10.158c-16.109,15.02-10.902,40.16,10.176,47.455c12.318,4.26,25.811,5.125,38.775,7.527
	c7.451,1.35,14.949,2.307,22.273,4.143c33.73,8.543,51.559,30.59,53.191,65.338c1.842,38.543-16.686,66.963-53.348,79.152
	c-35.842,11.92-71.721,9.871-106.662-4.334c-12.357-5.039-22.941-12.977-31.635-22.164c10.902-10.926,21.545-21.557,32.592-32.627
	c18.684,17.293,42.16,22.09,67.109,20.93c8.316-0.395,16.916-2.291,24.703-5.293c12.945-5.041,19.109-16.9,17.703-30.766
	c-1.461-14.221-8.729-23.34-22.828-26.186c-17.58-3.508-35.52-5.137-53.02-8.934c-29.152-6.275-49.828-22.348-55.473-53.297
	c-8.789-48.334,19.289-87.465,68.152-94.904c24.646-3.739,49.014-2.239,72.529,6.775
	C281.735,97.529,292.671,104.777,301.659,113.643z"/>
<path fill="#BA292F" d="M-11.319,87.242c0,3.366,0,6.152,0,8.953c0,62.625,0,125.23,0,187.844c0,2.832-0.023,5.666,0.109,8.506
	c0.473,10.822,5.488,15.693,16.502,15.914c5.892,0.119,11.791,0.023,18.244,0.023c0,12.996,0,25.637,0,38.293
	c-36.864,5.051-69.639,0.826-80.144-37.434c-1.406-5.184-2.086-10.707-2.093-16.098c-0.136-66.865-0.107-133.754-0.086-200.621
	c0-1.602,0.141-3.209,0.253-5.392C-42.932,87.242-27.711,87.242-11.319,87.242z"/>
<path d="M771.681,348.035c-16.74,0-32.951,0-49.678,0c0-87.021,0-173.613,0-260.912c16.451,0,32.809,0,49.678,0
	C771.681,173.891,771.681,260.494,771.681,348.035z"/>
<text transform="matrix(1 0 0 1 149.6133 556.3447)" font-family="'DIN-Regular'" font-size="177.3083">SEAMM</text>
<path fill="none" stroke="#000000" stroke-width="0.25" stroke-miterlimit="10" d="M125.362,312.479"/>
<path fill="none" stroke="#000000" stroke-width="0.25" stroke-miterlimit="10" d="M-772.553-434.922"/>
<path fill="none" stroke="#000000" stroke-width="0.25" stroke-miterlimit="10" d="M-798.206,220.127
	c0-361.937,292.867-654.803,654.793-654.803"/>
<g>
	<g>
		<polygon stroke="#000000" stroke-width="0.25" stroke-miterlimit="10" points="726.823,-15.188 749.438,-2.127 726.823,10.929 		
			"/>
		<polygon stroke="#000000" stroke-width="0.25" stroke-miterlimit="10" points="160.927,10.952 138.302,-2.104 160.927,-15.165 		
			"/>
		
			<line fill="none" stroke="#000000" stroke-width="0.25" stroke-miterlimit="10" x1="149.614" y1="-2.104" x2="726.835" y2="-2.104"/>
	</g>
	
		<line fill="none" stroke="#000000" stroke-width="0.25" stroke-miterlimit="10" x1="117.776" y1="-60.982" x2="117.776" y2="56.746"/>
	
		<line fill="none" stroke="#000000" stroke-width="0.25" stroke-miterlimit="10" x1="771.704" y1="-60.982" x2="771.704" y2="56.746"/>
</g>
<g>
	<g>
		<polygon stroke="#000000" stroke-width="0.25" stroke-miterlimit="10" points="-542.036,7.757 -552.479,25.854 -562.917,7.757 		
			"/>
		
			<line fill="none" stroke="#000000" stroke-width="0.25" stroke-miterlimit="10" x1="-552.479" y1="25.269" x2="-552.479" y2="-138.802"/>
		<polygon stroke="#000000" stroke-width="0.25" stroke-miterlimit="10" points="-562.917,-129.747 -552.479,-147.843 
			-542.036,-129.747 		"/>
	</g>
	
		<line fill="none" stroke="#000000" stroke-width="0.25" stroke-miterlimit="10" x1="-601.776" y1="-163.534" x2="-503.184" y2="-163.534"/>
	
		<line fill="none" stroke="#000000" stroke-width="0.25" stroke-miterlimit="10" x1="-601.776" y1="41.545" x2="-503.184" y2="41.545"/>
</g>
<path fill="#BA292F" d="M-285.322,199.439c9.734,0,17.624,7.891,17.624,17.621c0,9.738-7.889,17.629-17.624,17.629
	s-17.624-7.891-17.624-17.629C-302.946,207.33-295.057,199.439-285.322,199.439z"/>
<circle cx="-449.688" cy="514.177" r="21.024"/>
<path d="M-386.484-82.008c11.61,0,21.023,9.411,21.023,21.02c0,11.613-9.413,21.024-21.023,21.024
	c-11.609,0-21.023-9.411-21.023-21.024C-407.507-72.597-398.093-82.008-386.484-82.008z"/>
<circle cx="-210.038" cy="-317.623" r="21.023"/>
<line fill="none" stroke="#BA292F" stroke-width="1.5" stroke-miterlimit="10" x1="-285.322" y1="217.061" x2="-365.46" y2="361.928"/>
<line fill="none" x1="111.273" y1="580.486" x2="765.175" y2="580.486"/>
</svg>
